<?xml version="1.0" encoding="UTF-8"?>
<svg id="_레이어_1" data-name="레이어_1" xmlns="http://www.w3.org/2000/svg" version="1.1" viewBox="0 0 577.44 72.33">
  <!-- Generator: Adobe Illustrator 30.0.0, SVG Export Plug-In . SVG Version: 2.1.1 Build 123)  -->
  <defs>
    <style>
      .st0 {
        fill: #d73227;
      }

      .st1 {
        fill: #0d3b70;
      }

      .st2 {
        fill: #92ba3e;
      }

      .st3 {
        fill: #e4007f;
      }

      .st4 {
        fill: #521110;
      }

      .st5 {
        fill: #e99923;
      }

      .st6 {
        fill: #50a3d9;
      }

      .st7 {
        fill: #c7c7c7;
      }
    </style>
  </defs>
  <path class="st7" d="M172.5,21.26h14.43v24.28h13l18.02,26.79h-17.44l-13.58-20.28v20.28h-14.43V21.26Z"/>
  <path class="st3" d="M231.38,0l-8.84,47.53-4.26-8.04s-2.84-5.15-5.18-7.48l-18.57,21.36-10.88-9.45,18.57-21.36c-2.64-2-8.13-4.08-8.13-4.08l-8.55-3.1L231.38,0Z"/>
  <path class="st1" d="M31.07,17.1c-.01-1.85-.36-3.3-1.17-4.92h9c.11,0,.2.08.2.14v47.91c0,.06-.08.12-.2.12h-7.63c-.12,0-.2-.06-.2-.12V17.1ZM2.05,15.14v5.82h13.71c.9,0,.84.75.84,1.02,0,2.42-.27,4.68-.73,6.78H1.68v5.82h12.28C9.28,45.14,0,50.17,0,50.17l6.18,4.02c17.04-10.6,18.56-25.01,18.56-35.91v-3.14H2.05ZM86.68,33.35h-42.5c-.12,0-.21.07-.21.13v5.41c0,.06.09.12.21.12h16.57v4.24h-13.07c.85,1.66,1.2,3.12,1.2,4.99v11.06c0,.08.1.14.22.14h32.56c.12,0,.21-.06.21-.14v-15.92c0-.07-.1-.13-.21-.13h-11.67v-4.24h16.7c.11,0,.2-.06.2-.12v-5.41c0-.07-.09-.13-.2-.13M73.86,53.92h-17.15v-5.08h17.15v5.08ZM138.18,19.02v-5.51c0-.06.06-.11.13-.11h23.39c.07,0,.13.05.13.12s-.18,6.86-1.66,14.02v.08s-.08.29-.08.29h5.91c.07,0,.13.06.13.12v5.46c0,.06-.06.12-.13.12h-14.62v8.91c0,.07-.06.12-.13.12h-7.74c-.07,0-.13-.05-.13-.12v-8.91h-7.74c-.07,0-.13-.05-.13-.12v-5.46c0-.07.06-.12.13-.12h16.58l.07-.23c.22-.75.96-3.57,1.26-8.11l.02-.42h-.28s-14.98,0-14.98,0c-.07,0-.13-.05-.13-.12M143.88,59.27v-8.88c0-1.88-.33-3.34-1.13-5h8.94c.11,0,.2.07.2.16v8.16h24.26c.11,0,.2.07.2.15v5.41c0,.09-.09.15-.2.15h-32.06c-.11,0-.2-.07-.2-.15"/>
  <path class="st1" d="M175.95,12.32c.11,0,.2.08.2.14v34.87c0,.06-.09.12-.2.12h-7.45c-.12,0-.2-.07-.2-.12v-5.32h-11.05c-.11,0-.2-.07-.2-.15v-5.37c0-.08.09-.15.2-.15h11.05v-19.1c0-1.86-.36-3.3-1.17-4.93h8.81ZM80.92,21.03c0,5.82-7,10.54-15.63,10.54s-15.63-4.72-15.63-10.54,6.99-10.54,15.63-10.54,15.63,4.72,15.63,10.54M65.29,16.21c-3.65,0-6.61,2.16-6.61,4.82s2.96,4.82,6.61,4.82,6.62-2.16,6.62-4.82-2.96-4.82-6.62-4.82M94.08,19.03v-5.52c0-.06.05-.1.11-.1h35.03c.06,0,.11.04.11.1v5.52c0,.05-.04.1-.1.1h-12.47l.74.68c4.82,4.41,13.75,6.67,14.75,6.92.08.02.15.07.16.09l-.09.2s-3.87,4.07-4.05,4.41c0,0-.01,0-.2-.02-.39-.1-9.95-2.44-16.08-7.05l-.29-.21-.29.21c-6.06,4.56-15.72,6.95-16.13,7.06-.12.02-.13.02-.21-.07-.03-.06-.14-.26-4.05-4.41.03.03-.03-.11-.03-.11,0-.03.09-.08.15-.09,1.01-.24,9.97-2.53,14.76-6.92l.75-.68h-12.46c-.06,0-.11-.05-.11-.1M132.61,38.87c.1,0,.2-.06.2-.13v-5.41c0-.07-.09-.13-.2-.13h-41.82c-.12,0-.2.07-.2.13v5.41c0,.06.08.13.2.13h41.82ZM127.41,50.71c0,5.79-7.03,10.48-15.71,10.48s-15.71-4.69-15.71-10.48,7.03-10.48,15.71-10.48,15.71,4.69,15.71,10.48M111.7,45.95c-3.71,0-6.72,2.13-6.72,4.76s3.01,4.76,6.72,4.76,6.72-2.13,6.72-4.76-3.01-4.76-6.72-4.76"/>
  <g>
    <path class="st0" d="M447.63,15.93c-1.91-3.67-5.74-7.81-13.87-7.81-5.26,0-8.93,2.23-11.16,4.46v-3.03c0-.32-.32-.48-.48-.48h-7.18c-.32,0-.48.32-.48.48v60.6c0,.32.32.48.48.48h7.81c.32,0,.48-.32.48-.48v-20.57c2.39,2.07,5.74,3.99,10.68,3.99,8.13,0,11.96-4.15,13.87-7.81,1.91-3.83,2.07-7.81,2.07-8.61v-12.28c-.16-.96-.32-5.1-2.23-8.93M440.62,37.46c0,1.91-1.28,8.29-8.77,8.29s-8.77-6.54-8.77-8.29v-13.08c0-1.91,1.28-8.29,8.77-8.29s8.77,6.54,8.77,8.29v13.08Z"/>
    <path class="st4" d="M330.26,24.7c0-.8.16-4.78,2.23-8.61,2.07-3.67,6.54-7.81,15.47-7.81s13.39,4.15,15.47,7.81c2.23,3.83,2.23,7.81,2.23,8.61v12.28c0,.8-.16,4.78-2.23,8.61-2.07,3.67-6.38,7.81-15.47,7.81s-13.4-4.15-15.47-7.81c-2.23-3.83-2.23-7.81-2.23-8.61v-12.28ZM339.19,37.3c0,1.91,1.28,8.29,8.77,8.29s8.93-6.54,8.93-8.29v-13.08c0-1.91-1.28-8.29-8.93-8.29s-8.77,6.54-8.77,8.29v13.08ZM407.29,9.55c0-.32-.16-.48-.48-.48h-7.81c-.32,0-.48.32-.48.48v27.75c0,1.91-1.28,8.29-8.77,8.29s-8.93-6.54-8.93-8.29V9.55c0-.32-.32-.48-.48-.48h-7.81c-.32,0-.48.32-.48.48v27.43c0,.8,0,4.78,2.07,8.61,1.91,3.67,5.74,7.81,13.87,7.81,2.71,0,4.94-.48,6.7-1.43,1.75-.8,3.35-1.91,4.46-3.03v3.03c0,.32.32.48.48.48h7.18c.32,0,.48-.32.48-.48V9.55h0Z"/>
    <path class="st5" d="M488.61,24.22c0-3.51-1.75-11.64-9.57-14.83-7.65-3.19-17.7.32-20.89,1.59l-.64.32c-.32.16-.48.48-.32.8l2.23,6.38c.16.32.32.48.64.32.16,0,.16-.16.32-.16,3.03-1.59,10.84-4.15,15.63-1.91,4.78,2.23,4.31,7.18,4.31,7.81v1.28c-2.23-1.59-5.42-3.19-10.05-3.35-8.13,0-11.96,3.99-13.87,7.33-1.91,3.67-2.07,7.5-2.07,8.13,0,.8.16,4.62,2.07,8.13,1.91,3.51,5.74,7.34,13.87,7.34,4.78,0,7.97-1.75,10.37-3.51v2.07c0,.32.32.48.48.48h6.86c.32,0,.48-.32.48-.48v-27.59q.16,0,.16-.16M480.32,38.1c0,1.75-1.28,7.81-8.61,7.81s-8.61-6.06-8.61-7.81v-.64c0-1.75,1.28-7.81,8.61-7.81s8.61,6.06,8.61,7.81v.64Z"/>
    <path class="st6" d="M576.8,8.44c-4.63-.16-7.5,1.75-9.41,3.83-2.55-2.23-6.54-3.99-12.6-3.99-8.93,0-13.39,3.99-15.47,7.5-2.23,3.67-2.23,7.49-2.23,8.29v.48c0,.8.16,4.62,2.23,8.29.96,1.59,2.39,3.19,4.46,4.63-3.35,1.91-6.38,5.42-6.38,11.64v3.35c0,.32.32.64.48.64h25.67c3.03,0,4.63,2.07,5.1,3.99.48,2.39-.32,5.58-4.46,7.81l-.32.16c-.32.16-.32.48-.16.8l3.51,6.22c.16.32.48.32.8.16,0,0,1.75-1.12,2.39-1.44.64-.32,1.12-.8,1.59-1.28,4.46-4.15,5.26-9.73,4.3-14.19-1.28-6.06-6.38-9.57-12.76-9.57h-17.7c.96-5.42,7.18-5.26,7.97-5.26h.96c8.93,0,13.4-3.99,15.47-7.49,2.23-3.67,2.23-7.49,2.23-8.29v-.8c0-.64,0-3.51-1.44-6.54,1.12-.8,3.03-1.59,5.74-1.44.32,0,.64-.32.64-.48v-6.22c0-.48-.32-.8-.64-.8M563.56,24.38c0,1.75-1.28,7.81-8.77,7.97-7.65,0-8.77-6.22-8.77-7.97v-.48c0-1.75,1.28-7.81,8.77-7.97,7.66,0,8.77,6.22,8.77,7.97v.48Z"/>
    <path class="st4" d="M327.39,44.16l-6.86-3.51c-.32-.16-.64,0-.8.32v.16c-1.12,2.23-3.35,4.62-7.97,4.78-7.65,0-8.77-6.54-8.77-8.29v-13.08c0-1.91,1.28-8.29,8.77-8.29,4.62,0,7.02,2.55,7.97,4.78.16.16.32.48.64.48h.32l6.7-3.51c.32-.16.32-.48.16-.8-.16-.32-.32-.48-.32-.8-2.07-3.67-6.38-7.82-15.47-7.82s-13.4,4.15-15.47,7.82c-2.23,3.35-2.39,7.49-2.39,8.29v12.28c0,.8.16,4.78,2.23,8.61,2.07,3.67,6.38,7.81,15.47,7.81h.16c8.93,0,13.39-4.15,15.47-7.81l.48-.8c0-.16-.16-.48-.32-.64"/>
    <path class="st2" d="M528.96,15.93c-1.91-3.67-5.9-7.81-13.87-7.81-5.26,0-8.77,2.23-11.16,4.46v-3.03c0-.32-.32-.48-.48-.48h-7.18c-.32,0-.48.32-.48.48v42.58c0,.32.32.48.48.48h7.81c.32,0,.48-.32.48-.48v-28.22c.16-2.23,1.76-7.81,8.77-7.97,7.66,0,8.93,6.54,8.93,8.29v27.91c0,.32.32.48.48.48h7.81c.32,0,.48-.32.48-.48v-27.43c0-.8,0-4.94-2.07-8.77"/>
  </g>
  <path class="st7" d="M263.38,36.16l12.15-12.15c.43-.43.43-1.13,0-1.56s-1.13-.43-1.56,0l-12.15,12.15-12.15-12.15c-.43-.43-1.13-.43-1.56,0s-.43,1.13,0,1.56l12.15,12.15-12.15,12.15c-.43.43-.43,1.13,0,1.56s1.13.43,1.56,0l12.15-12.15,12.15,12.15c.43.43,1.13.43,1.56,0s.43-1.13,0-1.56l-12.15-12.15Z"/>
</svg>